<svg xmlns="http://www.w3.org/2000/svg" width="1600" height="1000" viewBox="0 0 1600 1000" role="img" aria-label="Abstract financial growth landscape">
  <defs><linearGradient id="sky" x1="0" y1="0" x2="1" y2="1"><stop stop-color="#071b3b"/><stop offset=".55" stop-color="#124fa5"/><stop offset="1" stop-color="#18a6a6"/></linearGradient><radialGradient id="glow"><stop stop-color="#8ee6ff" stop-opacity=".6"/><stop offset="1" stop-color="#8ee6ff" stop-opacity="0"/></radialGradient><pattern id="grid" width="80" height="80" patternUnits="userSpaceOnUse"><path d="M80 0H0V80" fill="none" stroke="#fff" stroke-opacity=".07"/></pattern></defs>
  <rect width="1600" height="1000" fill="url(#sky)"/><circle cx="1260" cy="180" r="430" fill="url(#glow)"/><rect width="1600" height="1000" fill="url(#grid)"/>
  <path d="M80 780C310 720 390 790 570 640S850 590 1010 430s300-100 500-300" fill="none" stroke="#fff" stroke-opacity=".18" stroke-width="42" stroke-linecap="round"/><path d="M80 780C310 720 390 790 570 640S850 590 1010 430s300-100 500-300" fill="none" stroke="#92efff" stroke-width="6" stroke-linecap="round"/>
  <g fill="#fff"><circle cx="570" cy="640" r="11"/><circle cx="1010" cy="430" r="11"/><circle cx="1380" cy="230" r="11"/></g><g transform="translate(1030 520)" fill="#fff" fill-opacity=".1"><rect width="370" height="260" rx="30"/><rect x="35" y="45" width="180" height="20" rx="10"/><rect x="35" y="85" width="280" height="12" rx="6"/><rect x="35" y="120" width="230" height="12" rx="6"/><circle cx="305" cy="190" r="38"/></g>
</svg>
